<svg width="36" height="37" viewBox="0 0 36 37" fill="none" xmlns="http://www.w3.org/2000/svg">
<g filter="url(#filter0_d_2690_8953)">
<path d="M17.0007 11.0005C17.0007 8.25045 19.3132 5.96295 22.0632 6.00045C23.0262 6.01157 23.9656 6.3006 24.7683 6.8328C25.571 7.365 26.203 8.11771 26.5882 9.00045H31.0007L26.9632 13.038C26.7026 17.0937 24.9073 20.8979 21.9422 23.6773C18.9771 26.4566 15.0648 28.0025 11.0007 28.0005C7.00068 28.0005 6.00068 26.5005 6.00068 26.5005C6.00068 26.5005 10.0007 25.0005 12.0007 22.0005C12.0007 22.0005 4.00068 18.0005 6.00068 7.00045C6.00068 7.00045 11.0007 12.0005 17.0007 13.0005V11.0005Z" stroke="#858584" stroke-width="2" stroke-linecap="round" stroke-linejoin="round"/>
</g>
<defs>
<filter id="filter0_d_2690_8953" x="-3" y="0" width="40" height="40" filterUnits="userSpaceOnUse" color-interpolation-filters="sRGB">
<feFlood flood-opacity="0" result="BackgroundImageFix"/>
<feColorMatrix in="SourceAlpha" type="matrix" values="0 0 0 0 0 0 0 0 0 0 0 0 0 0 0 0 0 0 127 0" result="hardAlpha"/>
<feOffset dy="4"/>
<feGaussianBlur stdDeviation="2"/>
<feComposite in2="hardAlpha" operator="out"/>
<feColorMatrix type="matrix" values="0 0 0 0 0 0 0 0 0 0 0 0 0 0 0 0 0 0 0.25 0"/>
<feBlend mode="normal" in2="BackgroundImageFix" result="effect1_dropShadow_2690_8953"/>
<feBlend mode="normal" in="SourceGraphic" in2="effect1_dropShadow_2690_8953" result="shape"/>
</filter>
</defs>
</svg>
